<?xml version="1.0" encoding="utf-8"?>
<!-- Generator: Adobe Illustrator 13.0.0, SVG Export Plug-In . SVG Version: 6.00 Build 14948)  -->
<!DOCTYPE svg PUBLIC "-//W3C//DTD SVG 1.1//EN" "http://www.w3.org/Graphics/SVG/1.1/DTD/svg11.dtd">
<svg version="1.1" id="Layer_1" xmlns="http://www.w3.org/2000/svg" xmlns:xlink="http://www.w3.org/1999/xlink" x="0px" y="0px"
	 width="1200px" height="300px" viewBox="0 0 1200 300" enable-background="new 0 0 1200 300" xml:space="preserve">
         <style>
      path {
  stroke-dasharray: 1300;
  stroke-dashoffset: -1300;
  -webkit-animation: strokeAnim 13s ease infinite;
  animation: strokeAnim 16s ease infinite;
             }

path:first-child {
  animation-direction: reverse;
  display: none; }

@-webkit-keyframes strokeAnim {
  0% {
    stroke-dashoffset: -1300;
    opacity: 1; }
  50% {
    stroke-dashoffset: 1200;
    opacity: 0; }
  99% {
    stroke-dashoffset: 1300; }
  99.1% {
    stroke-dashoffset: 1300;
    opacity: 0; }
  100% {
    stroke-dashoffset: -1300;
    opacity: 0; } }


path:nth-child(2) {
  -webkit-animation-delayy: 0.3s;
  animation-delay: 0.3s; }

path:nth-child(3) {
  -webkit-animation-delayy: 0.45s;
  animation-delay: 0.45s; }

path:nth-child(4) {
  -webkit-animation-delayy: 0.6s;
  animation-delay: 0.6s; }

path:nth-child(5) {
  -webkit-animation-delayy: 0.75s;
  animation-delay: 0.75s; }

path:nth-child(6) {
  -webkit-animation-delayy: 0.9s;
  animation-delay: 0.9s; }

path:nth-child(7) {
  -webkit-animation-delayy: 1.05s;
  animation-delay: 1.05s; }

path:nth-child(8) {
  -webkit-animation-delayy: 1.2s;
  animation-delay: 1.2s; }

path:nth-child(9) {
  -webkit-animation-delayy: 1.35s;
  animation-delay: 1.35s; }

path:nth-child(10) {
  -webkit-animation-delayy: 1.5s;
  animation-delay: 1.5s; }

path:nth-child(11) {
  -webkit-animation-delayy: 1.65s;
  animation-delay: 1.65s; }

path:nth-child(12) {
  -webkit-animation-delayy: 1.8s;
  animation-delay: 1.8s; }

path:nth-child(13) {
  -webkit-animation-delayy: 1.95s;
  animation-delay: 1.95s; }

path:nth-child(14) {
  -webkit-animation-delayy: 2.1s;
  animation-delay: 2.1s; }

path:nth-child(15) {
  -webkit-animation-delayy: 2.25s;
  animation-delay: 2.25s; }

path:nth-child(16) {
  -webkit-animation-delayy: 2.4s;
  animation-delay: 2.4s; }

path:nth-child(17) {
  -webkit-animation-delayy: 2.55s;
  animation-delay: 2.55s; }

path:nth-child(18) {
  -webkit-animation-delayy: 2.7s;
  animation-delay: 2.7s; }

path:nth-child(19) {
  -webkit-animation-delayy: 2.85s;
  animation-delay: 2.85s; }

path:nth-child(20) {
  -webkit-animation-delayy: 3s;
  animation-delay: 3s; }

path:nth-child(21) {
  -webkit-animation-delayy: 3.15s;
  animation-delay: 3.15s; }

path:nth-child(22) {
  -webkit-animation-delayy: 3.3s;
  animation-delay: 3.3s; }

path:nth-child(23) {
  -webkit-animation-delayy: 3.45s;
  animation-delay: 3.45s; }

path:nth-child(24) {
  -webkit-animation-delayy: 3.6s;
  animation-delay: 3.6s; }

path:nth-child(25) {
  -webkit-animation-delayy: 3.75s;
  animation-delay: 3.75s; }

path:nth-child(26) {
  -webkit-animation-delayy: 3.9s;
  animation-delay: 3.9s; }

path:nth-child(27) {
  -webkit-animation-delayy: 4.05s;
  animation-delay: 4.05s; }

path:nth-child(28) {
  -webkit-animation-delayy: 4.2s;
  animation-delay: 4.2s; }

path:nth-child(29) {
  -webkit-animation-delayy: 4.35s;
  animation-delay: 4.35s; }

path:nth-child(30) {
  -webkit-animation-delayy: 4.5s;
  animation-delay: 4.5s; }


    </style>
<g>
	<path fill="none" stroke="#009ACD" stroke-miterlimit="10" d="M-76.007,35.063c137.691-19.244,283.283,85.18,373.559,171.739
		c131.165,125.702,800.935,126.936,921.323-43.206"/>
	<path fill="none" stroke="#009ACD" stroke-miterlimit="10" d="M-74.989,40.981c137.689-19.244,283.281,85.18,373.557,171.738
		c131.165,125.701,800.936,126.936,921.323-43.206"/>
	<path fill="none" stroke="#009ACD" stroke-miterlimit="10" d="M-74.989,46.791c137.689-19.244,283.281,85.18,373.557,171.74
		c131.165,125.7,800.936,126.935,921.323-43.206"/>
	<path fill="none" stroke="#009ACD" stroke-miterlimit="10" d="M-75.586,52.237c137.689-19.244,283.281,85.18,373.557,171.74
		c131.165,125.701,800.935,126.934,921.323-43.207"/>
	<path fill="none" stroke="#009ACD" stroke-miterlimit="10" d="M-74.509,59.063c137.689-19.243,283.281,85.18,373.558,171.739
		c131.165,125.701,800.933,126.936,921.324-43.205"/>
	<path fill="none" stroke="#009ACD" stroke-miterlimit="10" d="M-74.09,66.07C63.599,46.827,209.191,151.25,299.467,237.81
		c131.165,125.7,800.933,126.935,921.322-43.206"/>
	<path fill="none" stroke="#009ACD" stroke-miterlimit="10" d="M-74.69,71.517C63,52.273,208.591,156.697,298.87,243.256
		c131.163,125.701,800.933,126.935,921.322-43.207"/>
	<path fill="none" stroke="#009ACD" stroke-miterlimit="10" d="M-75.288,75.147C62.402,55.904,207.994,160.328,298.27,246.889
		c131.165,125.699,800.935,126.934,921.323-43.21"/>
	<path fill="none" stroke="#009ACD" stroke-miterlimit="10" d="M-75.707,81.211c137.689-19.244,283.281,85.18,373.557,171.74
		c131.165,125.7,800.935,126.936,921.323-43.208"/>
	<path fill="none" stroke="#009ACD" stroke-miterlimit="10" d="M-73.493,87.13c137.689-19.244,283.281,85.179,373.558,171.739
		c131.165,125.699,800.936,126.936,921.324-43.208"/>
	<path fill="none" stroke="#009ACD" stroke-miterlimit="10" d="M-72.893,92.576c137.689-19.244,283.281,85.18,373.558,171.738
		c131.165,125.701,800.934,126.935,921.323-43.206"/>
	<path fill="none" stroke="#009ACD" stroke-miterlimit="10" d="M-73.493,98.022c137.689-19.243,283.281,85.18,373.558,171.74
		c131.165,125.7,800.936,126.935,921.324-43.208"/>
	<path fill="none" stroke="#009ACD" stroke-miterlimit="10" d="M-75.349,104.012c137.691-19.243,283.281,85.18,373.56,171.74
		c131.163,125.702,800.935,126.936,921.324-43.207"/>
	<path fill="none" stroke="#009ACD" stroke-miterlimit="10" d="M-74.331,109.932C63.359,90.688,208.951,195.112,299.227,281.67
		c131.165,125.701,800.933,126.936,921.324-43.207"/>
	<path fill="none" stroke="#009ACD" stroke-miterlimit="10" d="M-74.331,115.741c137.689-19.244,283.282,85.178,373.558,171.74
		c131.165,125.7,800.933,126.935,921.324-43.206"/>
	<path fill="none" stroke="#009ACD" stroke-miterlimit="10" d="M-74.93,121.187c137.691-19.243,283.283,85.181,373.56,171.74
		c131.165,125.701,800.933,126.934,921.324-43.208"/>
	<path fill="none" stroke="#009ACD" stroke-miterlimit="10" d="M-73.852,128.049c137.691-19.243,283.283,85.181,373.559,171.74
		c131.165,125.701,800.934,126.936,921.322-43.208"/>
	<path fill="none" stroke="#009ACD" stroke-miterlimit="10" d="M-73.431,135.02C64.257,115.776,209.85,220.2,300.126,306.76
		c131.165,125.7,800.934,126.935,921.322-43.206"/>
	<path fill="none" stroke="#009ACD" stroke-miterlimit="10" d="M-74.031,140.466c137.688-19.242,283.281,85.182,373.557,171.74
		c131.165,125.701,800.936,126.936,921.324-43.207"/>
	<path fill="none" stroke="#009ACD" stroke-miterlimit="10" d="M-74.629,144.097c137.689-19.243,283.281,85.181,373.558,171.742
		c131.165,125.698,800.933,126.933,921.324-43.21"/>
	<path fill="none" stroke="#009ACD" stroke-miterlimit="10" d="M-75.047,150.198c137.688-19.245,283.281,85.179,373.557,171.74
		c131.165,125.7,800.935,126.935,921.324-43.207"/>
	<path fill="none" stroke="#009ACD" stroke-miterlimit="10" d="M-72.833,156.079c137.688-19.243,283.281,85.18,373.557,171.739
		c131.165,125.701,800.937,126.936,921.322-43.207"/>
	
</g>
</svg>
