<?xml version="1.0" encoding="utf-8"?>
<!-- Generator: Adobe Illustrator 13.0.0, SVG Export Plug-In . SVG Version: 6.00 Build 14948)  -->
<!DOCTYPE svg PUBLIC "-//W3C//DTD SVG 1.1//EN" "http://www.w3.org/Graphics/SVG/1.1/DTD/svg11.dtd">
<svg version="1.1" id="Layer_1" xmlns="http://www.w3.org/2000/svg" xmlns:xlink="http://www.w3.org/1999/xlink" x="0px" y="0px"
	 width="1200px" height="300px" viewBox="0 0 1200 300" enable-background="new 0 0 1200 300" xml:space="preserve">
     <style>
      path {
  stroke-dasharray: 1300;
  stroke-dashoffset: -1300;
  -webkit-animation: strokeAnim 15s ease infinite;
  animation: strokeAnim 14s ease infinite; 
         }

path:first-child {
  animation-direction: reverse;
  display: none; }

@-webkit-keyframes strokeAnim {
  0% {
    stroke-dashoffset: -1300;
    opacity: 1; }
  50% {
    stroke-dashoffset: 1200;
    opacity: 1; }
  99% {
    stroke-dashoffset: 1300; }
  99.1% {
    stroke-dashoffset: 1300;
    opacity: 0; }
  100% {
    stroke-dashoffset: -1300;
    opacity: 0; } }

path:nth-child(1) {
  -webkit-animation-delay: -3.2s;
  animation-delay: -3.2s; }

path:nth-child(2) {
  -webkit-animation-delayy: 0.3s;
  animation-delay: 0.3s; }

path:nth-child(3) {
  -webkit-animation-delayy: 0.45s;
  animation-delay: 0.45s; }

path:nth-child(4) {
  -webkit-animation-delayy: 0.6s;
  animation-delay: 0.6s; }

path:nth-child(5) {
  -webkit-animation-delayy: 0.75s;
  animation-delay: 0.75s; }

path:nth-child(6) {
  -webkit-animation-delayy: 0.9s;
  animation-delay: 0.9s; }

path:nth-child(7) {
  -webkit-animation-delayy: 1.05s;
  animation-delay: 1.05s; }

path:nth-child(8) {
  -webkit-animation-delayy: 1.2s;
  animation-delay: 1.2s; }

path:nth-child(9) {
  -webkit-animation-delayy: 1.35s;
  animation-delay: 1.35s; }

path:nth-child(10) {
  -webkit-animation-delayy: 1.5s;
  animation-delay: 1.5s; }

path:nth-child(11) {
  -webkit-animation-delayy: 1.65s;
  animation-delay: 1.65s; }

path:nth-child(12) {
  -webkit-animation-delayy: 1.8s;
  animation-delay: 1.8s; }

path:nth-child(13) {
  -webkit-animation-delayy: 1.95s;
  animation-delay: 1.95s; }

path:nth-child(14) {
  -webkit-animation-delayy: 2.1s;
  animation-delay: 2.1s; }

path:nth-child(15) {
  -webkit-animation-delayy: 2.25s;
  animation-delay: 2.25s; }

path:nth-child(16) {
  -webkit-animation-delayy: 2.4s;
  animation-delay: 2.4s; }

path:nth-child(17) {
  -webkit-animation-delayy: 2.55s;
  animation-delay: 2.55s; }

path:nth-child(18) {
  -webkit-animation-delayy: 2.7s;
  animation-delay: 2.7s; }

path:nth-child(19) {
  -webkit-animation-delayy: 2.85s;
  animation-delay: 2.85s; }

path:nth-child(20) {
  -webkit-animation-delayy: 3s;
  animation-delay: 3s; }

path:nth-child(21) {
  -webkit-animation-delayy: 3.15s;
  animation-delay: 3.15s; }

path:nth-child(22) {
  -webkit-animation-delayy: 3.3s;
  animation-delay: 3.3s; }

path:nth-child(23) {
  -webkit-animation-delayy: -3.45s;
  animation-delay: -3.45s; }

path:nth-child(24) {
  -webkit-animation-delayy: -3.6s;
  animation-delay: -3.6s; }

path:nth-child(25) {
  -webkit-animation-delayy: -3.75s;
  animation-delay: -3.75s; }

path:nth-child(26) {
  -webkit-animation-delayy: -3.9s;
  animation-delay: -3.9s; }

path:nth-child(27) {
  -webkit-animation-delayy: -4.05s;
  animation-delay: -4.05s; }

path:nth-child(28) {
  -webkit-animation-delayy: -4.2s;
  animation-delay: -4.2s; }

path:nth-child(29) {
  -webkit-animation-delayy: -4.35s;
  animation-delay: -4.35s; }

path:nth-child(30) {
  -webkit-animation-delayy: -4.5s;
  animation-delay: -4.5s; }


    </style>

	<path fill="none" stroke="#009ACD" stroke-miterlimit="10" d="M54.62-228.079c-8.25,0-120,119.25-52.5,229.5
		c86.625,141.45,232.5,31.5,292.5,343.5c36.975,192.449,213.6,177.824,291.75,178.5c107.325,0.975,360-195.75,441-261
		c87.3-70.275,201.75-209.25,185.25-280.5"/>


	<path fill="none" stroke="#009ACD" stroke-miterlimit="10" d="M53.645-217.954c-8.25,0-120,119.25-52.5,229.5
		c86.625,141.45,232.5,31.5,292.5,343.5c36.975,192.375,213.6,177.75,291.75,178.5c107.323,0.975,360-195.75,441-261
		c87.3-70.275,201.75-209.25,185.25-280.5"/>


	<path fill="none" stroke="#009ACD" stroke-miterlimit="10" d="M53.645-208.204c-8.25,0-120,119.25-52.5,229.5
		c86.625,141.45,232.5,31.5,292.5,343.5c36.975,192.375,213.6,177.75,291.75,178.5c107.323,0.975,360-195.75,441-261
		c87.3-70.275,201.75-209.25,185.25-280.5"/>


	<path fill="none" stroke="#009ACD" stroke-miterlimit="10" d="M54.395-197.704c-8.25,0-120,119.25-52.5,229.5
		c86.625,141.45,232.5,31.5,292.5,343.5c36.975,192.375,213.6,177.75,291.75,178.5c107.323,0.975,360-195.75,441-261
		c87.3-70.275,201.75-209.25,185.25-280.5"/>


	<path fill="none" stroke="#009ACD" stroke-miterlimit="10" d="M53.42-188.929c-8.25,0-120,119.25-52.5,229.5
		c86.625,141.45,232.5,31.5,292.5,343.5c36.976,192.45,213.601,177.825,291.75,178.5c107.325,0.976,360-195.75,441-261
		c87.3-70.274,201.75-209.25,185.25-280.5"/>


	<path fill="none" stroke="#009ACD" stroke-miterlimit="10" d="M52.445-178.804c-8.25,0-120,119.25-52.5,229.5
		c86.625,141.45,232.5,31.5,292.5,343.5c36.975,192.449,213.6,177.824,291.75,178.5c107.325,0.976,360-195.75,441-261
		c87.3-70.274,201.75-209.25,185.25-280.5"/>


	<path fill="none" stroke="#009ACD" stroke-miterlimit="10" d="M52.445-169.054c-8.25,0-120,119.25-52.5,229.5
		c86.625,141.45,232.5,31.5,292.5,343.5c36.975,192.449,213.6,177.824,291.75,178.5c107.325,0.976,360-195.75,441-261
		c87.3-70.274,201.75-209.25,185.25-280.5"/>


	<path fill="none" stroke="#009ACD" stroke-miterlimit="10" d="M53.195-158.554c-8.25,0-120,119.25-52.5,229.5
		c86.625,141.45,232.5,31.5,292.5,343.5c36.975,192.449,213.6,177.824,291.75,178.5c107.325,0.976,360-195.75,441-261
		c87.3-70.274,201.75-209.25,185.25-280.5"/>


	<path fill="none" stroke="#009ACD" stroke-miterlimit="10" d="M53.27-150.753c-8.25,0-120,119.25-52.5,229.5
		c86.625,141.45,232.5,31.5,292.5,343.5c36.975,192.45,213.6,177.825,291.75,178.5c107.323,0.975,360-195.75,441-261
		c87.3-70.275,201.75-209.25,185.25-280.5"/>


	<path fill="none" stroke="#009ACD" stroke-miterlimit="10" d="M52.295-140.628c-8.25,0-120,119.25-52.5,229.5
		c86.625,141.45,232.5,31.5,292.5,343.5c36.977,192.451,213.602,177.825,291.75,178.5c107.325,0.975,360-195.75,441-261
		c87.3-70.275,201.75-209.25,185.25-280.5"/>


	<path fill="none" stroke="#009ACD" stroke-miterlimit="10" d="M52.295-130.878c-8.25,0-120,119.25-52.5,229.5
		c86.625,141.45,232.5,31.5,292.5,343.5c36.977,192.451,213.602,177.826,291.75,178.5c107.325,0.975,360-195.75,441-261
		c87.3-70.275,201.75-209.25,185.25-280.5"/>


	<path fill="none" stroke="#009ACD" stroke-miterlimit="10" d="M53.045-120.378c-8.25,0-120,119.25-52.5,229.5
		c86.625,141.45,232.5,31.5,292.5,343.5c36.977,192.451,213.602,177.826,291.75,178.5c107.325,0.975,360-195.75,441-261
		c87.3-70.275,201.75-209.25,185.25-280.5"/>


	<path fill="none" stroke="#009ACD" stroke-miterlimit="10" d="M51.995-111.529c-8.25,0-120,119.25-52.5,229.5
		c86.625,141.451,232.5,31.5,292.5,343.5c36.975,192.451,213.6,177.826,291.75,178.5c107.325,0.977,360-195.75,441-261
		c87.3-70.273,201.75-209.25,185.25-280.5"/>


	<path fill="none" stroke="#009ACD" stroke-miterlimit="10" d="M51.02-101.479c-8.25,0-120,119.25-52.5,229.5
		c86.625,141.449,232.5,31.5,292.5,343.5c36.975,192.449,213.6,177.824,291.75,178.5c107.323,0.977,360-195.75,441-261
		c87.3-70.273,201.75-209.25,185.25-280.5"/>


	<path fill="none" stroke="#009ACD" stroke-miterlimit="10" d="M51.02-91.729c-8.25,0-120,119.25-52.5,229.5
		c86.625,141.449,232.5,31.5,292.5,343.5c36.975,192.449,213.6,177.824,291.75,178.5c107.323,0.977,360-195.75,441-261
		c87.3-70.273,201.75-209.25,185.25-280.5"/>

	<path fill="none" stroke="#009ACD" stroke-miterlimit="10" d="M51.77-81.229c-8.25,0-120,119.25-52.5,229.5
		c86.625,141.449,232.5,31.5,292.5,343.5c36.975,192.449,213.6,177.824,291.75,178.5c107.323,0.977,360-195.75,441-261
		c87.3-70.273,201.75-209.25,185.25-280.5"/>

</svg>
