<?xml version="1.0" encoding="utf-8"?>
<!-- Generator: Adobe Illustrator 13.0.0, SVG Export Plug-In . SVG Version: 6.00 Build 14948)  -->
<!DOCTYPE svg PUBLIC "-//W3C//DTD SVG 1.1//EN" "http://www.w3.org/Graphics/SVG/1.1/DTD/svg11.dtd">
<svg version="1.1" id="Layer_1" xmlns="http://www.w3.org/2000/svg" xmlns:xlink="http://www.w3.org/1999/xlink" x="0px" y="0px"
	 width="1200px" height="300px" viewBox="0 0 1200 300" enable-background="new 0 0 1200 300" xml:space="preserve">
    <style>
      path {
  stroke-dasharray: 1300;
  stroke-dashoffset: -1300;
  -webkit-animation: strokeAnim 15s ease infinite;
  animation: strokeAnim 14s ease infinite; 
        }

path:first-child {
  animation-direction: reverse;
  display: none; }

@-webkit-keyframes strokeAnim {
  0% {
    stroke-dashoffset: -1300;
    opacity: 1; }
  50% {
    stroke-dashoffset: 1200;
    opacity: 1; }
  99% {
    stroke-dashoffset: 1300; }
  99.1% {
    stroke-dashoffset: 1300;
    opacity: 0; }
  100% {
    stroke-dashoffset: -1300;
    opacity: 0; } }

path:nth-child(1) {
  -webkit-animation-delay: -3.2s;
  animation-delay: -3.2s; }

path:nth-child(2) {
  -webkit-animation-delayy: 0.3s;
  animation-delay: 0.3s; }

path:nth-child(3) {
  -webkit-animation-delayy: 0.45s;
  animation-delay: 0.45s; }

path:nth-child(4) {
  -webkit-animation-delayy: 0.6s;
  animation-delay: 0.6s; }

path:nth-child(5) {
  -webkit-animation-delayy: 0.75s;
  animation-delay: 0.75s; }

path:nth-child(6) {
  -webkit-animation-delayy: 0.9s;
  animation-delay: 0.9s; }

path:nth-child(7) {
  -webkit-animation-delayy: 1.05s;
  animation-delay: 1.05s; }

path:nth-child(8) {
  -webkit-animation-delayy: 1.2s;
  animation-delay: 1.2s; }

path:nth-child(9) {
  -webkit-animation-delayy: 1.35s;
  animation-delay: 1.35s; }

path:nth-child(10) {
  -webkit-animation-delayy: 1.5s;
  animation-delay: 1.5s; }

path:nth-child(11) {
  -webkit-animation-delayy: 1.65s;
  animation-delay: 1.65s; }

path:nth-child(12) {
  -webkit-animation-delayy: 1.8s;
  animation-delay: 1.8s; }

path:nth-child(13) {
  -webkit-animation-delayy: 1.95s;
  animation-delay: 1.95s; }

path:nth-child(14) {
  -webkit-animation-delayy: 2.1s;
  animation-delay: 2.1s; }

path:nth-child(15) {
  -webkit-animation-delayy: 2.25s;
  animation-delay: 2.25s; }

path:nth-child(16) {
  -webkit-animation-delayy: 2.4s;
  animation-delay: 2.4s; }

path:nth-child(17) {
  -webkit-animation-delayy: 2.55s;
  animation-delay: 2.55s; }

path:nth-child(18) {
  -webkit-animation-delayy: 2.7s;
  animation-delay: 2.7s; }

path:nth-child(19) {
  -webkit-animation-delayy: 2.85s;
  animation-delay: 2.85s; }

path:nth-child(20) {
  -webkit-animation-delayy: 3s;
  animation-delay: 3s; }

path:nth-child(21) {
  -webkit-animation-delayy: 3.15s;
  animation-delay: 3.15s; }

path:nth-child(22) {
  -webkit-animation-delayy: 3.3s;
  animation-delay: 3.3s; }

path:nth-child(23) {
  -webkit-animation-delayy: -3.45s;
  animation-delay: -3.45s; }

path:nth-child(24) {
  -webkit-animation-delayy: -3.6s;
  animation-delay: -3.6s; }

path:nth-child(25) {
  -webkit-animation-delayy: -3.75s;
  animation-delay: -3.75s; }

path:nth-child(26) {
  -webkit-animation-delayy: -3.9s;
  animation-delay: -3.9s; }

path:nth-child(27) {
  -webkit-animation-delayy: -4.05s;
  animation-delay: -4.05s; }

path:nth-child(28) {
  -webkit-animation-delayy: -4.2s;
  animation-delay: -4.2s; }

path:nth-child(29) {
  -webkit-animation-delayy: -4.35s;
  animation-delay: -4.35s; }

path:nth-child(30) {
  -webkit-animation-delayy: -4.5s;
  animation-delay: -4.5s; }
    </style>
    
<path fill="none" stroke="#009ACD" stroke-miterlimit="10" d="M-69.624-94.861c-3.54,307.755,517.911,381.326,663.317,389.144
	c146.328,7.854,630.613-37.71,666.363-190.468"/>
<path fill="none" stroke="#009ACD" stroke-miterlimit="10" d="M-70.898-87.712c-3.54,310.034,519.469,374.137,665.369,381.995
	c146.328,7.854,628.561-30.56,664.311-183.319"/>
<path fill="none" stroke="#009ACD" stroke-miterlimit="10" d="M-77.201-80.131c-3.539,310.033,519.471,374.137,665.373,381.993
	c146.326,7.855,628.559-30.559,664.308-183.317"/>
<path fill="none" stroke="#009ACD" stroke-miterlimit="10" d="M-82.862-71.843c-3.54,310.033,519.469,374.137,665.369,381.994
	c146.329,7.855,628.561-30.56,664.311-183.319"/>
<path fill="none" stroke="#009ACD" stroke-miterlimit="10" d="M-87.252-62.77C-90.792,247.265,432.22,311.367,578.12,319.225
	c146.326,7.854,628.56-30.561,664.307-183.317"/>
<path fill="none" stroke="#009ACD" stroke-miterlimit="10" d="M-88.385-53.814c-3.539,310.033,519.468,374.137,665.37,381.994
	c146.328,7.855,628.562-30.56,664.311-183.319"/>
<path fill="none" stroke="#009ACD" stroke-miterlimit="10" d="M-171.99-25.336c19.467,307.245,566.477,332.854,711.385,332.265
	c104.561-0.431,328.757,37.983,500.568-9.073c71.005-19.443,177.263-67.443,184.412-112.222"/>
<path fill="none" stroke="#009ACD" stroke-miterlimit="10" d="M-175.316-17.559c19.468,307.245,566.475,332.854,711.386,332.265
	c104.558-0.431,328.756,37.983,500.566-9.073c71.005-19.443,177.262-67.443,184.482-112.222"/>
<path fill="none" stroke="#009ACD" stroke-miterlimit="10" d="M-176.803-10.96c19.467,307.244,566.474,332.854,711.385,332.266
	c104.561-0.433,328.755,37.983,500.569-9.074c71.005-19.443,177.262-67.441,184.412-112.222"/>
<path fill="none" stroke="#009ACD" stroke-miterlimit="10" d="M-178.361-4.361c19.467,307.244,566.477,332.854,711.385,332.266
	c104.561-0.432,328.757,37.984,500.569-9.073c71.005-19.443,177.263-67.443,184.412-112.221"/>
<path fill="none" stroke="#009ACD" stroke-miterlimit="10" d="M-171.282-32.328c19.469,307.244,566.476,332.854,711.387,332.266
	c104.558-0.434,328.757,37.982,500.569-9.075c71.002-19.443,177.261-67.441,184.409-112.221"/>
<path fill="none" stroke="#009ACD" stroke-miterlimit="10" d="M-172.627-39.084c19.467,307.244,566.476,332.855,711.385,332.266
	c104.562-0.433,328.756,37.981,500.57-9.074c71.005-19.443,177.263-67.442,184.413-112.222"/>
</svg>
